<?xml version="1.0" encoding="iso-8859-1"?>
<!-- Generator: Adobe Illustrator 16.0.0, SVG Export Plug-In . SVG Version: 6.00 Build 0)  -->
<!DOCTYPE svg PUBLIC "-//W3C//DTD SVG 1.1//EN" "http://www.w3.org/Graphics/SVG/1.1/DTD/svg11.dtd">
<svg version="1.1" id="Capa_1" xmlns="http://www.w3.org/2000/svg" xmlns:xlink="http://www.w3.org/1999/xlink" x="0px" y="0px"
	 width="588.599px" height="588.6px" viewBox="0 0 588.599 588.6" style="enable-background:new 0 0 588.599 588.6;"
	 xml:space="preserve">
<g>
	<path d="M281.424,256.294c-5.468,0.124-9.146,0.723-11.068,1.274v33.652c2.272,0.52,5.07,0.686,8.943,0.686
		c14.449,0.01,23.507-7.069,23.507-18.998C302.806,262.19,295.006,255.98,281.424,256.294z"/>
	<path d="M101.767,261.127l-0.274,0.005c-1.355,5.993-2.71,13.613-4.195,19.445l-5.379,21.231l20.266,0.179l-5.777-21.486
		C104.759,274.52,103.129,267.073,101.767,261.127z"/>
	<path d="M539.573,49.204h-178.2c-0.791,0-1.561,0.076-2.342,0.124V0L11.227,46.417V540.98L359.031,588.6v-50.814
		c0.781,0.053,1.551,0.116,2.342,0.116h178.2c20.841,0,37.8-16.965,37.8-37.8V86.999C577.373,66.16,560.414,49.204,539.573,49.204z
		 M122.499,345.637l-7.27-26.414l-26.253-0.586l-6.363,25.308l-20.503-0.876l26.866-98.505l27.231-0.994l29.742,103.075
		L122.499,345.637z M184.129,349.851c-11.768-0.517-23.177-4.146-28.816-7.646l4.601-19.491c6.12,3.449,15.638,7.009,25.608,7.31
		c10.897,0.316,16.735-4.183,16.735-11.274c0-6.761-5.05-10.7-17.658-15.473c-17.06-6.289-27.957-15.997-27.957-31.264
		c0-17.917,14.359-32.168,38.831-33.096c12.021-0.454,21.012,1.819,27.503,4.524l-5.519,20.229
		c-4.358-2.024-12.036-4.936-22.449-4.69c-10.254,0.237-15.18,5.102-15.18,10.642c0,6.827,5.843,9.79,19.425,14.974
		c19.013,7.101,28.15,17.279,28.15,32.867C227.398,335.997,213.263,351.137,184.129,349.851z M319.207,299.99
		c-9.624,8.453-23.66,12.061-39.725,11.828c-3.52-0.053-6.679-0.264-9.121-0.644v40.759l-25.861-1.098V240.39
		c7.95-1.614,19.261-3.035,35.511-3.634c16.804-0.622,29.027,2.046,37.35,8.042c8.031,5.717,13.5,15.438,13.5,27.074
		C330.861,283.511,326.705,293.358,319.207,299.99z M555.773,500.102c0,8.933-7.268,16.199-16.2,16.199h-178.2
		c-0.802,0-1.571-0.11-2.342-0.231V71.046c0.771-0.114,1.54-0.243,2.342-0.243h178.2c8.933,0,16.2,7.27,16.2,16.2V500.102z"/>
	<polygon points="363.213,374.414 383.932,374.414 427.829,209.261 407.115,209.261 	"/>
	<polygon points="439.747,268.254 515.832,304.478 515.832,304.932 439.747,341.149 439.747,365.302 538.191,315.172 
		538.191,294.229 439.747,244.104 	"/>
</g>
<g>
</g>
<g>
</g>
<g>
</g>
<g>
</g>
<g>
</g>
<g>
</g>
<g>
</g>
<g>
</g>
<g>
</g>
<g>
</g>
<g>
</g>
<g>
</g>
<g>
</g>
<g>
</g>
<g>
</g>
</svg>
